# Blender 4.2.1 LTS
# www.blender.org
mtllib Rocks.mtl
o Rock
v -0.853553 -1.000000 0.853553
v -0.632095 1.426245 0.447160
v -0.853553 -1.000000 -0.853553
v -0.682372 1.557963 -0.321742
v 0.853553 -1.000000 0.853553
v -0.050653 1.448044 0.447160
v 0.853553 -1.000000 -0.853553
v 0.224894 1.565302 -0.189864
v 0.000000 -1.000000 -1.207107
v -0.328739 1.810964 -0.260236
v -0.000000 -1.000000 1.207107
v -0.328739 1.332537 0.957111
v -0.910878 0.508982 0.747494
v -0.853553 -0.537258 0.853553
v -0.853553 -0.537258 -0.853553
v -0.826316 0.495715 -0.667600
v 0.853553 -0.537258 -0.853553
v 0.311957 0.604073 -0.487318
v 0.853553 -0.537258 0.853553
v 0.659871 0.511569 0.746955
v -0.000000 -0.537258 1.207107
v -0.081926 0.510695 1.056342
v 0.000000 -0.537258 -1.207107
v -0.115191 0.481326 -0.943966
vn 0.3827 -0.0000 -0.9239
vn 0.9219 0.3875 0.0078
vn 0.9395 0.3274 -0.1008
vn -0.0000 -1.0000 -0.0000
vn -0.4445 0.8530 0.2733
vn -0.5643 0.1947 0.8023
vn 1.0000 -0.0000 -0.0000
vn 0.3827 -0.0000 0.9239
vn 0.5273 0.4506 0.7204
vn 0.4724 0.3987 -0.7861
vn -1.0000 -0.0000 -0.0000
vn -0.3827 -0.0000 -0.9239
vn -0.2634 0.3749 -0.8888
vn -0.3827 -0.0000 0.9239
vn -0.3649 0.0894 0.9267
vn 0.3786 0.1616 0.9113
vn -0.9995 -0.0134 -0.0270
vn 0.4695 0.3756 -0.7991
vn -0.3656 0.1841 -0.9124
vn -0.9779 0.2089 -0.0040
vn 0.3148 0.8891 0.3324
vt 0.948331 0.337487
vt 0.952725 0.325807
vt 0.984364 0.335871
vt 0.976222 0.354581
vt 0.979355 0.435873
vt 0.956774 0.479790
vt 0.924244 0.468549
vt 0.930570 0.422481
vt 0.933116 0.394873
vt 0.986257 0.372867
vt 0.929685 0.331908
vt 0.913029 0.377998
vt 0.885341 0.360415
vt 0.845062 0.472418
vt 0.831800 0.464601
vt 0.847838 0.442381
vt 0.865917 0.431584
vt 0.932678 0.383342
vt 0.903737 0.425187
vt 0.898009 0.461020
vt 0.872310 0.470751
vt 0.867584 0.425036
vt 0.908435 0.390362
vt 0.952377 0.292043
vt 0.934518 0.234617
vt 0.961191 0.238773
vt 0.973635 0.280617
vt 0.929526 0.320463
vt 0.875325 0.341839
vt 0.925940 0.291663
vt 0.921090 0.248117
vt 0.876705 0.378796
vt 0.871594 0.294806
vt 0.885915 0.250088
vt 0.865942 0.476993
vt 0.866701 0.452329
s 0
f 9/1/1 23/2/1 17/3/1 7/4/1
f 18/5/2 8/6/2 6/7/2 20/8/2
f 18/5/3 20/8/3 19/9/3 17/10/3
f 3/11/4 9/1/4 11/12/4 1/13/4
f 10/14/5 4/15/5 2/16/5 12/17/5
f 9/1/4 7/4/4 5/18/4 11/12/4
f 22/19/6 12/20/6 2/21/6 13/22/6
f 7/4/7 17/10/7 19/9/7 5/18/7
f 5/18/8 19/9/8 21/23/8 11/12/8
f 20/8/9 6/7/9 12/20/9 22/19/9
f 24/24/10 10/25/10 8/26/10 18/27/10
f 15/28/11 3/11/11 1/13/11 14/29/11
f 3/11/12 15/28/12 23/2/12 9/1/12
f 16/30/13 4/31/13 10/25/13 24/24/13
f 11/12/14 21/23/14 14/32/14 1/13/14
f 22/19/15 13/22/15 14/32/15 21/23/15
f 20/8/16 22/19/16 21/23/16 19/9/16
f 13/33/17 16/30/17 15/28/17 14/29/17
f 24/24/18 18/27/18 17/3/18 23/2/18
f 16/30/19 24/24/19 23/2/19 15/28/19
f 13/33/20 2/34/20 4/31/20 16/30/20
f 8/35/21 10/14/21 12/17/21 6/36/21
o Rock.Safekeep
v -3.479328 -0.609856 -1.198172
v -3.272362 1.434551 -1.467412
v -3.486243 -0.608156 -2.807994
v -3.138943 1.273359 -1.923900
v -2.179307 -0.606632 -1.399472
v -2.596881 1.342646 -1.498904
v -2.069058 -0.606040 -2.575381
v -2.584608 1.220393 -1.955390
v -2.732463 -0.585396 -2.911940
v -2.877214 1.502369 -2.026509
v -2.769740 -0.549495 -1.064021
v -2.974053 1.703194 -1.052134
v -3.502822 0.868358 -1.336828
v -3.399679 -0.174120 -1.318190
v -3.469927 -0.148828 -2.794175
v -3.306990 0.844199 -2.286680
v -2.347069 -0.281579 -2.408413
v -2.477669 0.744695 -2.164373
v -2.384205 -0.241080 -1.495491
v -2.370879 0.744875 -1.453305
v -2.734622 -0.172329 -1.121461
v -2.779593 0.811451 -1.260478
v -2.723692 -0.199775 -2.769508
v -2.487447 0.861409 -2.501555
vn 0.5161 0.4990 -0.6961
vn 0.9446 0.3096 -0.1089
vn 0.9969 0.0644 -0.0444
vn 0.0565 -0.9983 0.0104
vn -0.5417 0.7900 -0.2871
vn -0.0619 -0.9980 0.0086
vn -0.4270 -0.0376 0.9035
vn 0.8206 0.5695 0.0470
vn 0.6005 0.2911 0.7447
vn 0.6616 0.1056 0.7424
vn 0.8598 0.4834 -0.1648
vn -0.9936 0.1096 0.0258
vn -0.0485 0.1830 -0.9819
vn -0.3478 0.5322 -0.7718
vn -0.2374 0.2391 0.9415
vn -0.1902 0.0623 0.9798
vn 0.6032 0.0488 0.7961
vn -0.9978 0.0417 -0.0516
vn 0.8811 0.0701 -0.4677
vn -0.1042 0.3689 -0.9236
vn -0.8744 0.4104 -0.2588
vn 0.6516 0.7491 -0.1194
vt 0.954778 0.092716
vt 0.959291 0.080896
vt 0.979583 0.087555
vt 0.974202 0.109949
vt 0.974541 0.180121
vt 0.964705 0.203177
vt 0.942883 0.207645
vt 0.943658 0.180241
vt 0.944396 0.143054
vt 0.977319 0.131205
vt 0.940507 0.087675
vt 0.924877 0.131408
vt 0.900331 0.117576
vt 0.852592 0.232338
vt 0.866811 0.234862
vt 0.868273 0.254809
vt 0.853150 0.272145
vt 0.943458 0.130546
vt 0.924612 0.185784
vt 0.920333 0.229006
vt 0.899160 0.214280
vt 0.890633 0.187392
vt 0.924758 0.144353
vt 0.958740 0.045521
vt 0.941161 0.015205
vt 0.960033 0.020443
vt 0.971685 0.041548
vt 0.939260 0.079223
vt 0.893689 0.096347
vt 0.931743 0.050523
vt 0.926281 0.025268
vt 0.895913 0.139743
vt 0.890633 0.044192
vt 0.903044 0.015230
vt 0.836168 0.231866
vt 0.836168 0.250694
s 0
f 33/37/22 47/38/22 41/39/22 31/40/22
f 42/41/23 32/42/23 30/43/23 44/44/23
f 42/41/24 44/44/24 43/45/24 41/46/24
f 27/47/25 33/37/25 35/48/25 25/49/25
f 34/50/26 28/51/26 26/52/26 36/53/26
f 33/37/27 31/40/27 29/54/27 35/48/27
f 46/55/28 36/56/28 26/57/28 37/58/28
f 31/40/29 41/46/29 43/45/29 29/54/29
f 29/54/30 43/45/30 45/59/30 35/48/30
f 44/44/31 30/43/31 36/56/31 46/55/31
f 48/60/32 34/61/32 32/62/32 42/63/32
f 39/64/33 27/47/33 25/49/33 38/65/33
f 27/47/34 39/64/34 47/38/34 33/37/34
f 40/66/35 28/67/35 34/61/35 48/60/35
f 35/48/36 45/59/36 38/68/36 25/49/36
f 46/55/37 37/58/37 38/68/37 45/59/37
f 44/44/38 46/55/38 45/59/38 43/45/38
f 37/69/39 40/66/39 39/64/39 38/65/39
f 48/60/40 42/63/40 41/39/40 47/38/40
f 40/66/41 48/60/41 47/38/41 39/64/41
f 37/69/42 26/70/42 28/67/42 40/66/42
f 32/71/43 34/50/43 36/53/43 30/72/43
o Cube
v -1.996308 3.551146 -3.325890
v -2.140395 2.318087 -3.186112
v -0.625651 3.709067 -3.299153
v -1.000000 1.839925 -3.501100
v -1.806636 3.347920 -2.342810
v -2.046394 2.275466 -2.738035
v -1.052984 3.677968 -2.744389
v -0.825858 2.824183 -2.145599
v -1.000000 1.839925 -2.705208
v -1.046342 3.252936 -3.606442
v -1.163367 2.738569 -3.706432
v -1.758928 2.924706 -3.549655
v -1.926515 2.811693 -2.540422
vn -0.2027 0.9722 0.1168
vn 0.6492 0.5449 0.5307
vn 0.5606 -0.3938 0.7285
vn -0.3867 -0.9222 -0.0000
vn -0.2595 0.0661 -0.9635
vn -0.9933 0.1154 -0.0043
vn -0.2954 -0.6576 0.6931
vn 0.9670 -0.1652 -0.1941
vn -0.5371 0.3839 0.7511
vt 0.597085 0.255102
vt 0.605721 0.248411
vt 0.629500 0.264032
vt 0.630924 0.323316
vt 0.667080 0.218836
vt 0.597695 0.227251
vt 0.597168 0.176005
vt 0.587230 0.230036
vt 0.546137 0.194180
vt 0.581702 0.250552
vt 0.572661 0.300671
vt 0.543313 0.261404
vt 0.602091 0.239179
vt 0.692204 0.334438
vt 0.748769 0.336770
vt 0.760686 0.402286
vt 0.749996 0.438951
vt 0.719274 0.477449
vt 0.646932 0.402187
s 0
usemtl Material
f 49/73/44 53/74/44 55/75/44 51/76/44
f 55/75/45 56/77/45 51/76/45
f 54/78/46 55/75/46 53/74/46
f 57/79/47 50/80/47 52/81/47
f 50/80/48 60/82/48 49/73/48 51/76/48 58/83/48 59/84/48 52/81/48
f 54/78/49 61/85/49 53/74/49 49/73/49 60/82/49 50/80/49
f 54/78/50 50/80/50 57/79/50 56/77/50
f 57/86/51 52/87/51 59/88/51 58/89/51 51/90/51 56/91/51
f 54/78/52 56/77/52 55/75/52
o Rock.001
v -0.849005 -1.001079 -4.149575
v -0.320992 0.541968 -4.864103
v -0.781121 -1.005501 -5.807053
v -0.465816 0.708579 -5.199537
v 0.731754 -0.955992 -4.214789
v -0.125496 0.347849 -4.930439
v 0.690646 -0.968966 -5.738413
v -0.061914 0.478241 -5.209460
v -0.027805 -0.892217 -5.918307
v -0.284099 0.803141 -5.205101
v -0.000180 -0.999942 -3.793190
v -0.103865 0.400360 -4.701215
v -0.633723 0.104533 -4.603720
v -0.777632 -0.580367 -4.219579
v -0.673320 -0.579236 -5.730689
v -0.531983 0.223673 -5.379498
v 0.607891 -0.552658 -5.654189
v 0.068871 0.172476 -5.332724
v 0.649024 -0.608061 -4.259062
v 0.412157 0.072754 -4.521852
v 0.002584 -0.544370 -3.803910
v -0.095816 0.012228 -4.416689
v -0.023033 -0.554820 -5.786655
v -0.156379 0.219937 -5.703643
vn 0.2310 0.2899 -0.9288
vn 0.6583 0.7527 -0.0100
vn 0.8674 0.4836 -0.1172
vn 0.0752 -0.9968 -0.0264
vn -0.1401 0.7933 0.5925
vn -0.0268 -0.9993 -0.0254
vn -0.1831 0.5877 0.7881
vn 0.9768 0.2128 -0.0244
vn 0.5345 0.1105 0.8379
vn 0.3322 0.7983 0.5023
vn 0.7580 0.5072 -0.4100
vn -0.9769 0.2071 -0.0533
vn -0.1406 0.2794 -0.9498
vn -0.5092 0.4404 -0.7394
vn -0.4274 0.1187 0.8962
vn -0.3106 0.6020 0.7356
vn 0.3499 0.6024 0.7174
vn -0.9794 0.1860 -0.0785
vn 0.4761 0.4215 -0.7718
vn -0.3408 0.2511 -0.9060
vn -0.9124 0.3866 0.1348
vn 0.9073 0.3980 0.1359
vt 0.785136 0.163031
vt 0.789531 0.151351
vt 0.821170 0.161415
vt 0.813027 0.180125
vt 0.816161 0.261417
vt 0.793579 0.305334
vt 0.761049 0.294093
vt 0.767375 0.248025
vt 0.769921 0.220417
vt 0.823063 0.198411
vt 0.766491 0.157453
vt 0.749834 0.203542
vt 0.722147 0.185959
vt 0.681867 0.297962
vt 0.668605 0.290145
vt 0.684644 0.267925
vt 0.702723 0.257128
vt 0.769483 0.208886
vt 0.740543 0.250731
vt 0.734815 0.286564
vt 0.709115 0.296295
vt 0.704389 0.250580
vt 0.745240 0.215906
vt 0.789183 0.117587
vt 0.771324 0.060161
vt 0.797996 0.064317
vt 0.810441 0.106162
vt 0.766331 0.146007
vt 0.712131 0.167383
vt 0.762745 0.117207
vt 0.757895 0.073662
vt 0.713511 0.204340
vt 0.708400 0.120351
vt 0.722720 0.075632
vt 0.702747 0.302537
vt 0.703507 0.277873
s 0
f 70/92/53 84/93/53 78/94/53 68/95/53
f 79/96/54 69/97/54 67/98/54 81/99/54
f 79/96/55 81/99/55 80/100/55 78/101/55
f 64/102/56 70/92/56 72/103/56 62/104/56
f 71/105/57 65/106/57 63/107/57 73/108/57
f 70/92/58 68/95/58 66/109/58 72/103/58
f 83/110/59 73/111/59 63/112/59 74/113/59
f 68/95/60 78/101/60 80/100/60 66/109/60
f 66/109/61 80/100/61 82/114/61 72/103/61
f 81/99/62 67/98/62 73/111/62 83/110/62
f 85/115/63 71/116/63 69/117/63 79/118/63
f 76/119/64 64/102/64 62/104/64 75/120/64
f 64/102/65 76/119/65 84/93/65 70/92/65
f 77/121/66 65/122/66 71/116/66 85/115/66
f 72/103/67 82/114/67 75/123/67 62/104/67
f 83/110/68 74/113/68 75/123/68 82/114/68
f 81/99/69 83/110/69 82/114/69 80/100/69
f 74/124/70 77/121/70 76/119/70 75/120/70
f 85/115/71 79/118/71 78/94/71 84/93/71
f 77/121/72 85/115/72 84/93/72 76/119/72
f 74/124/73 63/125/73 65/122/73 77/121/73
f 69/126/74 71/105/74 73/108/74 67/127/74
