# Wavefront Obj file
# 
# verts: 50 uv-s: 108
mtllib Door Texture.mtl

g Cube.001
#pivot 0.000000 0.000000 0.000000

v 0.205279 6.025598 2.000000
v -0.205279 6.025598 2.000000
v 0.205279 6.025598 0.000000
v 0.205279 5.723039 2.000000
v 0.205279 6.025598 2.000000
v -0.205279 6.025598 2.000000
v 0.205279 5.723039 2.000000
v -0.205279 5.723039 2.000000
v -0.205279 5.723039 2.000000
v -0.205279 -0.025598 2.000000
v -0.205279 5.722639 1.687827
v -0.205279 5.723039 0.000000
v -0.205279 5.722639 0.000000
v -0.205279 6.025598 0.000000
v 0.205279 5.722639 0.000000
v 0.205279 5.722639 1.687827
v 0.205279 5.723039 0.000000
v 0.205279 -0.025198 1.687827
v 0.205279 -0.025598 2.000000
v -0.205279 -0.025198 1.687827
v 0.205279 6.025598 2.304756
v -0.205279 6.025598 2.304756
v 0.205279 5.723039 2.304756
v -0.205279 5.723039 2.304756
v 0.205279 6.025598 -2.000000
v -0.205279 6.025598 -2.000000
v 0.205279 5.723039 -2.000000
v 0.205279 6.025598 -2.000000
v -0.205279 6.025598 -2.000000
v 0.205279 5.723039 -2.000000
v -0.205279 5.723039 -2.000000
v -0.205279 5.723039 -2.000000
v -0.205279 -0.025598 -2.000000
v -0.205279 5.722639 -1.687827
v 0.205279 5.722639 -1.687827
v 0.205279 -0.025198 -1.687827
v 0.205279 -0.025598 -2.000000
v -0.205279 -0.025198 -1.687827
v 0.205279 6.025598 -2.304756
v -0.205279 6.025598 -2.304756
v 0.205279 5.723039 -2.304756
v -0.205279 5.723039 -2.304756
# 42 positions

vt 0.729544 0.347062
vt 0.729544 0.000000
vt 0.755987 0.000000
vt 0.755987 0.347062
vt 0.190884 0.476108
vt 0.208237 0.476108
vt 0.208237 0.649639
vt 0.190884 0.649639
vt 0.208237 0.476108
vt 0.225590 0.476108
vt 0.225590 0.502551
vt 0.208237 0.502551
vt 0.190884 0.649639
vt 0.173531 0.649639
vt 0.173531 0.476108
vt 0.190884 0.476108
vt 0.747652 0.712168
vt 0.747652 0.382505
vt 0.774738 0.382482
vt 0.774738 0.712191
vt 0.173531 0.476108
vt 0.173531 0.823170
vt 0.000000 0.823170
vt 0.000000 0.476108
vt 0.676771 0.729544
vt 0.347062 0.729544
vt 0.347062 0.382482
vt 0.676771 0.382482
vt 0.000000 0.476108
vt 0.000000 0.329663
vt 0.347062 0.329663
vt 0.347062 0.476108
vt 0.783073 0.000023
vt 0.783073 0.329686
vt 0.755987 0.329709
vt 0.755987 0.000000
vt 0.000000 0.000000
vt 0.347062 0.000000
vt 0.703857 0.729544
vt 0.676771 0.729544
vt 0.676771 0.382482
vt 0.703857 0.382482
vt 0.747652 0.729544
vt 0.730299 0.729544
vt 0.730299 0.382482
vt 0.747652 0.382482
vt 0.225590 0.476108
vt 0.242943 0.476108
vt 0.242943 0.502551
vt 0.225590 0.502551
vt 0.730299 0.382482
vt 0.730299 0.729544
vt 0.703857 0.729544
vt 0.703857 0.382482
vt 0.729544 0.347062
vt 0.755987 0.347062
vt 0.755987 0.000000
vt 0.729544 0.000000
vt 0.190884 0.649639
vt 0.208237 0.649639
vt 0.208237 0.476108
vt 0.208237 0.502551
vt 0.225590 0.502551
vt 0.225590 0.476108
vt 0.190884 0.649639
vt 0.173531 0.649639
vt 0.747652 0.712168
vt 0.774738 0.712191
vt 0.774738 0.382482
vt 0.747652 0.382505
vt 0.000000 0.476108
vt 0.000000 0.823170
vt 0.676771 0.729544
vt 0.676771 0.382482
vt 0.347062 0.382482
vt 0.347062 0.729544
vt 0.347062 0.329663
vt 0.000000 0.329663
vt 0.783073 0.000023
vt 0.755987 0.000000
vt 0.755987 0.329709
vt 0.783073 0.329686
vt 0.347062 0.000000
vt 0.000000 0.000000
vt 0.703857 0.729544
vt 0.703857 0.382482
vt 0.676771 0.382482
vt 0.676771 0.729544
vt 0.747652 0.729544
vt 0.747652 0.382482
vt 0.730299 0.382482
vt 0.730299 0.729544
vt 0.225590 0.476108
vt 0.225590 0.502551
vt 0.242943 0.502551
vt 0.242943 0.476108
vt 0.730299 0.382482
vt 0.703857 0.382482
vt 0.703857 0.729544
vt 0.730299 0.729544
# 100 texture coordinates

vn 0.000000 -1.000000 0.000000
vn 1.000000 0.000000 0.000000
vn -1.000000 0.000000 0.000000
vn 0.000000 1.000000 0.000000
vn 0.000000 0.000000 1.000000
vn 0.000000 0.000000 -1.000000
vn 0.000000 -0.999999 -0.001282
vn 0.000000 -0.999999 0.001282
# 8 normals

usemtl default
f 8/1/1 7/2/1 23/3/1 24/4/1
f 17/5/2 3/6/2 1/7/2 4/8/2
f 6/9/3 8/10/3 24/11/3 22/12/3
f 9/13/3 2/14/3 14/15/3 12/16/3
f 11/17/3 20/18/3 10/19/3 9/20/3
f 3/21/4 14/22/4 2/23/4 1/24/4
f 19/25/5 4/26/5 9/27/5 10/28/5
f 15/29/1 16/30/1 11/31/1 13/32/1
f 18/33/2 16/34/2 4/35/2 19/36/2
f 16/30/6 18/37/6 20/38/6 11/31/6
f 10/39/7 20/40/7 18/41/7 19/42/7
f 22/43/5 24/44/5 23/45/5 21/46/5
f 7/47/2 5/48/2 21/49/2 23/50/2
f 5/51/4 6/52/4 22/53/4 21/54/4
f 31/55/1 42/56/1 41/57/1 30/58/1
f 17/5/2 27/59/2 25/60/2 3/6/2
f 29/61/3 40/62/3 42/63/3 31/64/3
f 32/65/3 12/16/3 14/15/3 26/66/3
f 34/67/3 32/68/3 33/69/3 38/70/3
f 3/21/4 25/71/4 26/72/4 14/22/4
f 37/73/6 33/74/6 32/75/6 27/76/6
f 15/29/1 13/32/1 34/77/1 35/78/1
f 36/79/2 37/80/2 27/81/2 35/82/2
f 35/78/5 34/77/5 38/83/5 36/84/5
f 33/85/8 37/86/8 36/87/8 38/88/8
f 40/89/6 39/90/6 41/91/6 42/92/6
f 30/93/2 41/94/2 39/95/2 28/96/2
f 28/97/4 39/98/4 40/99/4 29/100/4

g Plane
#pivot 0.000000 0.000000 0.000000

v 0.087184 5.754802 1.687827
v 0.087184 -0.025198 1.687827
v 0.087184 5.754802 -1.712173
v 0.087184 -0.025198 -1.712173
# 4 positions

vt 0.347062 0.729544
vt 0.617518 0.729544
vt 0.617518 1.000000
vt 0.347062 1.000000
# 4 texture coordinates

vn 1.000000 0.000000 0.000000
# 1 normals

usemtl default
f 43/101/9 44/102/9 46/103/9 45/104/9

g Plane.001
#pivot 0.000000 0.000000 0.000000

v -0.076934 5.754802 1.687827
v -0.076933 -0.025198 1.687827
v -0.076934 5.754802 -1.712173
v -0.076933 -0.025198 -1.712173
# 4 positions

vt 0.347062 0.000000
vt 0.729544 0.000000
vt 0.729544 0.382482
vt 0.347062 0.382482
# 4 texture coordinates

vn -1.000000 -0.000000 0.000000
# 1 normals

usemtl default
f 47/105/10 49/106/10 50/107/10 48/108/10

# 30 faces
